<svg version="1.1" id="Layer_1" xmlns="http://www.w3.org/2000/svg" xmlns:xlink="http://www.w3.org/1999/xlink" x="0px"
     y="0px"
     viewBox="0 0 738.312 59.026" style="enable-background:new 0 0 738.312 59.026;" xml:space="preserve">
<g>
	<g>
		<path d="M484.284,6.774c-0.354,0.088-0.708,0.176-1.063,0.264c0.481-0.077,0.959-0.128,1.433-0.149
			C484.53,6.85,484.407,6.812,484.284,6.774z"/>
        <path d="M291.705,10.03c-0.504,0-1.009,0-1.513,0c0.252,0.25,0.504,0.501,0.757,0.751c0.252-0.083,0.505-0.167,0.757-0.25
			c0-0.083,0-0.167,0-0.25C291.705,10.197,291.705,10.113,291.705,10.03z"/>
        <path d="M719.237,47.843c-0.252,0-0.505,0-0.757,0c-1.804,1.374-5.407,0.852-8.324,0.501c-0.252,0.167-0.505,0.334-0.757,0.501
			c0,0.167,0,0.334,0,0.501c2.648,0.167,5.297,0.334,7.945,0.501C718.708,49.332,718.902,49.044,719.237,47.843z"/>
        <path d="M433.585,55.606c0-0.083,0-0.167,0-0.25c-0.757,0-1.514,0-2.27,0c-0.126,0.25-0.252,0.501-0.378,0.751
			C431.819,55.939,432.702,55.773,433.585,55.606z"/>
        <path d="M414.668,53.853c-0.252,0.334-0.504,0.668-0.757,1.002c0.126,0.167,0.252,0.334,0.378,0.501
			c1.639,0.25,3.279,0.501,4.919,0.751C418.58,54.587,417.141,54.097,414.668,53.853z"/>
        <path d="M408.993,56.607c-0.126,0.167-0.252,0.334-0.378,0.501c0.252,0,0.504,0,0.757,0
			C409.245,56.941,409.119,56.774,408.993,56.607z"/>
        <path d="M485.797,52.1c3.181,0.622,9.286,0.848,12.107,0c0.252,0,0.504,0,0.757,0c0.126-0.167,0.252-0.334,0.378-0.501
			c-3.532,0.006-4.047-0.466-6.054-1.252c-4.087,1.21-4.147,0.871-7.945,0C485.292,50.931,485.545,51.515,485.797,52.1z"/>
        <path d="M408.993,55.355c-0.504-0.167-1.009-0.334-1.513-0.501c-0.252,0.334-0.505,0.668-0.757,1.002
			c0.252,0.083,0.505,0.167,0.757,0.25c0.504-0.167,1.009-0.334,1.513-0.501C408.993,55.522,408.993,55.439,408.993,55.355z"/>
        <path d="M517.956,51.599c-0.126,0.083-0.252,0.167-0.378,0.25c0.92,0.486,1.922,0.536,3.783,0.501
			c0.252-0.083,0.505-0.167,0.757-0.25c0.126-0.25,0.252-0.501,0.378-0.751c-0.378,0-0.757,0-1.135,0
			C520.471,51.943,519.292,51.952,517.956,51.599z"/>
        <path d="M489.58,50.096c0-0.083,0-0.167,0-0.25c-0.504,0-1.009,0-1.513,0c0.126,0.25,0.252,0.501,0.378,0.751
			c0.378-0.083,0.757-0.167,1.135-0.25C489.58,50.263,489.58,50.18,489.58,50.096z"/>
        <path d="M390.832,58.861c0.252,0,0.504,0,0.757,0c-0.883-0.167-1.766-0.334-2.648-0.501
			C389.779,59.482,389.482,58.843,390.832,58.861z"/>
        <path d="M385.535,56.357c0.504,0,1.009,0,1.513,0c-0.541-1.344-1.259-1.731-3.405-2.003
			C384.274,55.021,384.905,55.689,385.535,56.357z"/>
        <path d="M363.213,56.357c0.126,0,0.252,0,0.378,0c-0.126-0.25-0.252-0.501-0.378-0.751
			C363.213,55.856,363.213,56.106,363.213,56.357z"/>
        <path d="M394.994,56.607c1.848-0.339,1.614-0.503,2.648-1.252c-0.252-0.417-0.504-0.835-0.757-1.252
			C396.255,54.938,395.624,55.773,394.994,56.607z"/>
        <path d="M405.209,56.607c0.252-0.334,0.505-0.668,0.757-1.002c-0.504,0-1.009,0-1.513,0c-0.252,0.334-0.505,0.668-0.757,1.002
			C404.2,56.607,404.705,56.607,405.209,56.607z"/>
        <path d="M392.345,55.105c-0.378,0.334-0.757,0.668-1.135,1.002c0,0.25,0,0.501,0,0.751c0.504,0.083,1.009,0.167,1.513,0.25
			C392.957,56.003,393.332,55.784,392.345,55.105z"/>
        <path d="M373.428,56.106c-1.135-0.167-2.27-0.334-3.405-0.501c0.705,0.822,1.702,0.784,3.405,1.252
			C373.428,56.607,373.428,56.357,373.428,56.106z"/>
        <path d="M236.845,48.594c-0.504,0.25-1.009,0.501-1.513,0.751c0.126,0.334,0.252,0.668,0.378,1.002
			c0.378-0.083,0.757-0.167,1.135-0.25C238.214,49.417,238.333,49.27,236.845,48.594z"/>
        <path d="M376.076,54.604c-0.631,0.417-1.261,0.835-1.892,1.252c0,0.083,0,0.167,0,0.25c1.547,0.176,1.737-0.009,3.027-0.501
			C376.689,54.655,377.221,55.088,376.076,54.604z"/>
        <path d="M368.51,57.609c0.252-0.167,0.504-0.334,0.757-0.501c-0.818-0.908-0.993-1.111-2.648-1.502
			c-0.504,0.334-1.009,0.668-1.513,1.002C367.665,56.364,367.112,56.6,368.51,57.609z"/>
        <path d="M535.739,46.34c0.883,0,1.766,0,2.648,0c0-0.083,0-0.167,0-0.25s0-0.167,0-0.25c-1.513-0.083-3.027-0.167-4.54-0.25
			C534.45,46.046,534.818,46.082,535.739,46.34z"/>
        <path d="M355.267,55.606c-0.504,0-1.009,0-1.513,0c-1.387,0.167-2.775,0.334-4.162,0.501c0.252,0.167,0.504,0.334,0.757,0.501
			c1.639,0,3.279,0,4.919,0C355.267,56.273,355.267,55.939,355.267,55.606z"/>
        <path d="M360.564,55.606c-0.757,0-1.513,0-2.27,0c-0.378,0.25-0.757,0.501-1.135,0.751c-0.126,0.25-0.252,0.501-0.378,0.751
			c1.261-0.25,2.522-0.501,3.783-0.751C360.564,56.106,360.564,55.856,360.564,55.606z"/>
        <path d="M691.617,52.851c0.126-0.334,0.252-0.668,0.378-1.002c-7.314-0.501-14.63-1.002-21.944-1.502
			c-4.527-0.474-20.142-1.213-24.593-0.751c-1.639,0.417-3.279,0.835-4.918,1.252c-8.164-0.979-16.074-1.739-27.241-2.003
			c-1.3,0.549-1.85,0.388-3.784,0.25c-0.378,0.25-0.757,0.501-1.135,0.751c0,0.25,0,0.501,0,0.751
			c5.379,1.621,12.796,0.008,18.917,0.501C647.355,52.712,672.125,52.9,691.617,52.851z"/>
        <path d="M554.278,53.352c0.126-0.167,0.252-0.334,0.378-0.501c-0.63-0.083-1.261-0.167-1.892-0.25
			c0.378,0.25,0.757,0.501,1.135,0.751C554.025,53.352,554.151,53.352,554.278,53.352z"/>
        <path d="M575.465,47.592c1.513-0.167,3.027-0.334,4.54-0.501c0.126-0.167,0.252-0.334,0.378-0.501
			c-2.396-0.083-4.793-0.167-7.189-0.25C573.973,47.274,574.262,46.787,575.465,47.592z"/>
        <path d="M722.263,49.095c0-0.334,0-0.668,0-1.002c-0.504,0-1.009,0-1.513,0c-0.252,0.668-0.504,1.336-0.757,2.003
			C721.643,49.813,721.448,49.851,722.263,49.095z"/>
        <path d="M735.884,40.581c0.504-0.083,1.009-0.167,1.513-0.25c0.252-0.584,0.505-1.169,0.757-1.753
			c0.229-2.288,0.504-4.504-1.513-4.758c-1.252-0.773-1.493-0.792-1.513-2.504c-0.252-0.083-0.505-0.167-0.757-0.25
			c-0.126,0.584-0.252,1.169-0.378,1.753c-0.252,0.25-0.504,0.501-0.757,0.751c-1.892-0.417-3.784-0.835-5.675-1.252
			c-1.621-0.61-1.141-0.71-1.513-1.753c-0.378-0.083-0.757-0.167-1.135-0.25c0,0.501,0,1.002,0,1.502c0,0-28.499-1.573-31.024-2.254
			c-0.252,0-0.505,0-0.757,0c-0.126-0.167-0.252-0.334-0.378-0.501c3.74-0.755,7.535-0.844,10.594-1.503
			c-1.701-2.542-13.791-2.524-18.539-3.005c-0.252-0.083-0.505-0.167-0.757-0.25c0.252-0.918,0.505-1.836,0.757-2.755
			c-12.193-2.301-22.196-1.404-34.808-2.755c-10.186-1.091-18.464-1.862-28.376-2.003c-0.252-0.25-0.504-0.501-0.757-0.751
			c0.126-0.167,0.252-0.334,0.378-0.501c4.024,0.614,11.017,0.227,15.512,0.751c0-0.083,0-0.167,0-0.25
			c-1.008-0.739-21.719-1.646-23.836-2.003c0.631,0.668,1.261,1.336,1.892,2.003c0,0.083,0,0.167,0,0.25
			c-3.407-1.076-3.245-1.916-8.324-1.753c0-0.501,0-1.002,0-1.503c4.492,0.317,8.231,0.258,14.377,0.25
			c0.252-0.751,0.504-1.503,0.757-2.254c-0.126-0.083-0.252-0.167-0.378-0.25c-2.09,0.254-2.363,0.236-2.648,1.753
			c-1.695-0.447-1.379-0.882-2.648-1.503c-3.201-0.929-6.31,0.689-7.945,1.503c-4.489-1.048-10.76-1.257-16.269-2.254
			c0.252,0.668,0.505,1.336,0.757,2.003c-0.757-0.334-1.513-0.668-2.27-1.002c-0.252,0.083-0.505,0.167-0.757,0.25
			c-0.252,0.25-0.504,0.501-0.757,0.751c0.126,0.167,0.252,0.334,0.378,0.501c4.712,0.478,13.978-1.041,16.647,1.252
			c-7.179-1.492-13.723-0.031-21.944,0.25c-0.126-0.167-0.252-0.334-0.378-0.501c0.504-0.835,1.009-1.67,1.513-2.504
			c0-0.083,0-0.167,0-0.25c-0.378-0.167-0.757-0.334-1.135-0.501c-0.126,0.751-0.252,1.503-0.378,2.254
			c-1.261,0.501-2.523,1.002-3.784,1.503c-0.883-0.25-1.766-0.501-2.648-0.751c-0.378-0.083-0.757-0.167-1.135-0.25
			c0.63-1.168,1.261-2.337,1.892-3.506c-2.474,0.68-3.913,1.491-6.432,1.753c-0.126-0.167-0.252-0.334-0.378-0.501
			c0.504-0.25,1.009-0.501,1.513-0.751c0-0.25,0-0.501,0-0.751c-1.892,0.25-3.784,0.501-5.675,0.751c0-0.334,0-0.668,0-1.002
			c-1.941,0.398-6.181,0.749-7.189,1.753c-0.404-0.539-0.636-1.336-1.135-1.753c-2.325,1.158-10.74,0.476-14.377,0
			c-1.421-0.447-10.353,1.116-13.999,0c-0.883,0.334-1.766,0.668-2.648,1.002c0,0.083,0,0.167,0,0.25
			c0.969,0.877,1.075,0.954,3.405,1.002c-4.232,2.538-14.436,0.731-20.431,0.25c0.252-0.668,0.504-1.336,0.757-2.003
			c-6.305,0-12.612,0-18.917,0c-2.205-2.165-4.814-3.015-7.575-2.891c1.768,0.546,3.537,1.092,5.305,1.639
			c-1.374,1.91-5.193,0.969-8.702,0.751c0-0.584,0-1.169,0-1.753c0.655-0.162,1.31-0.325,1.964-0.488
			c-1.147,0.185-2.311,0.517-3.478,0.988c-0.252,0.167-0.504,0.334-0.757,0.501c0.378-1.753,0.757-3.506,1.135-5.259
			c-0.126,0-0.252,0-0.378,0c-0.63,1.669-1.261,3.339-1.892,5.008c-0.126,0.083-0.252,0.167-0.378,0.25c-0.252,0-0.504,0-0.757,0
			c-0.126,0-0.252,0-0.378,0c-0.126-0.751-0.252-1.503-0.378-2.254c-5.95-0.878-10.611-0.062-15.891,0.751
			c-1.12-0.683-1.405-0.523-1.892-1.753c-1.485,0.336-1.284,0.47-2.27,1.002c-0.883-0.501-1.766-1.002-2.648-1.502
			c-2.14,0.305-1.722,1.224-3.027,1.502c-1.247,0.266-10.668-0.243-13.242-0.25c0,0.25,0,0.501,0,0.751
			c1.984,0,1.382-0.038,3.027-0.501c-2.048,2.718-8.843,2.148-12.486,2.755c0-0.083,0-0.167,0-0.25
			c2.332-0.671,3.206-1.92,5.297-2.504c-2.082-1.169-8.962-1.254-10.972-0.501c-1.336,0.583-1.246,0.915-0.757,2.003
			c-0.252,0.083-0.504,0.167-0.757,0.25c-0.658-0.544-0.678-0.673-0.757-1.753c-11.527-2.663-16.244,2.569-28.376,3.005
			c0.661-0.921,5.649-1.595,8.702-1.753c0.126-0.417,0.252-0.835,0.378-1.252c-1.487-0.086-4.072,0.99-5.297,0.751
			c-0.252-0.334-0.504-0.668-0.757-1.002c-3.757-1.04-6.151,0.776-8.702,0.751c-2.847-0.028-4.254-0.986-7.945-1.002
			c-0.858,0.768-1.114,1.016-1.135,2.504c-0.126,0-0.252,0-0.378,0c-1.533-0.888-2.384-1.683-4.162-2.504
			c-1.009,0.25-2.018,0.501-3.027,0.751c-1.002-0.551-0.742-0.17-1.135-1.252c-0.504,0-1.009,0-1.513,0
			c-0.126,0.501-0.252,1.002-0.378,1.503c-2.55-1.006-4.759,0.484-6.432-0.25c0.997-0.118,0.584,0.165,1.513-0.501
			c-0.126-0.083-0.252-0.167-0.378-0.25c-0.631,0.083-1.261,0.167-1.892,0.25c0.057,0.669,0.04,0.152,0.378,1.002
			c-2.062-0.563-3.113-0.937-4.54,0c0.378,0.584,0.757,1.169,1.135,1.753c-2.27-0.751-4.54-1.503-6.81-2.254
			c-0.252,0.083-0.504,0.167-0.757,0.25c1.009,0.417,2.018,0.835,3.027,1.252c0.504,0.334,1.009,0.668,1.513,1.002
			c0,0.083,0,0.167,0,0.25c-1.723,0.165-1.694-0.123-3.027-0.751c-0.146,1.57,0.358,2.575-1.513,4.007c-0.126,0-0.252,0-0.378,0
			c0.378-0.668,0.757-1.336,1.135-2.003c-0.126-0.334-0.252-0.668-0.378-1.002c-3.198-0.343-4.698-1.798-7.945-2.755
			c0,0.417,0,0.835,0,1.252c-1.453-0.098-4.902-1.481-7.567-1.502c-3.195-0.025-10.094,1.585-13.242,2.003
			c-1.948,0.259-4.594-1.03-7.945-0.25c-0.631,0.501-1.261,1.002-1.892,1.502c-1.387-0.25-2.775-0.501-4.162-0.751
			c-6.713,0.113-6.648,0.813-13.242,0.751c-0.302,0.573,0.37,0.242-0.757,0.751c0.378,0.501,0.757,1.002,1.135,1.503
			c0.504,0,1.009,0,1.513,0c0-0.584,0-1.169,0-1.753c0.126,0,0.252,0,0.378,0c0.583,0.982,0.659,0.993,1.892,1.503
			c0.126,0.25,0.252,0.501,0.378,0.751c-2.743,0.704-5.415,0.566-8.324,1.753c-0.126-0.167-0.252-0.334-0.378-0.501
			c0.504-0.25,1.009-0.501,1.513-0.751c0.504-0.417,1.009-0.835,1.514-1.252c-0.757-0.501-1.514-1.002-2.27-1.503
			c-4.582,0.334-6.915,1.642-11.729,1.503c1.03,0.684,0.773,0.653,2.27,0.501c0.126,0.668,0.252,1.336,0.378,2.003
			c-1.009,0.25-2.018,0.501-3.027,0.751c-0.252-0.25-0.505-0.501-0.757-0.751c-4.654-1.196-18.125,1.625-26.106,1.002
			c-3.909-0.305-12.702-0.058-17.782,0.751c-4.507-1.008-26.605,0.031-29.511,0.751c-0.378,0.334-0.757,0.668-1.135,1.002
			c-0.993,0.115-8.047-1.166-11.35-0.751c-11.98,0.668-23.963,1.336-35.943,2.003c-0.568,3.716,9.653,2.517,13.999,2.003
			c-4.293,2.797-10.231,0.046-16.647,1.252c-11.943,2.245-29.521,1.77-40.861,3.506c-4.459,0.682-15.159,1.244-17.026,0.25
			c-0.529,0.913-0.882,0.491,0,1.252c-1.768,0.505-41.997,4.257-41.997,4.257c-1.387,0-2.775,0-4.162,0c0,0.25,0,0.501,0,0.751
			c0.757,0.417,1.514,0.835,2.27,1.252c6.613,0.248,11.938-0.127,15.512-0.501c11.966-1.251,22.48-4.389,31.701-3.124
			c0.723,0.099,2.132,0.321,4.162,0.431c1.844,0.1,6.19,0.336,11.529-0.711c1.435-0.281,3.994-0.861,4.055-0.648
			c0.053,0.188-1.951,0.544-2.35,1.785c-0.273,0.852,0.306,1.824,0.935,2.59c-3.557,0.68-7.234,1.316-11.026,1.895
			c-5.642,0.862-11.085,1.53-16.305,2.039c-1.892-0.751-3.784-1.503-5.675-2.254c-0.657,0.544-0.678,0.673-0.757,1.753
			c-7.618,0.092-13.085,1.516-18.917,1.002c-0.126,0.835-0.252,1.67-0.378,2.504c-3.934-0.885-10.027-1.371-14.756-0.25
			c-0.771,0.49-0.412,0.087-0.757,1.002c-0.252,0.083-0.505,0.167-0.757,0.25c-0.662-0.7-0.852-0.637-1.135-1.753
			c-0.504,0.334-1.009,0.668-1.513,1.002c1.792,1.32,2.665,1.14,2.648,3.506c0.378,0.167,0.757,0.334,1.135,0.501
			c1.135-0.918,2.27-1.836,3.405-2.755c-0.378-0.501-0.757-1.002-1.135-1.503c0.631,0.083,1.261,0.167,1.892,0.25
			c0.126,0.334,0.252,0.668,0.378,1.002c-0.883,1.002-1.766,2.003-2.648,3.005c10.103-0.167,23.159,0.801,30.646-1.753
			c1.638,0.568,4.668,1.205,5.675,2.254c-2.321-0.673-3.197-0.005-6.054,0.25c-0.126,0.167-0.252,0.334-0.378,0.501
			c0.252,0.334,0.504,0.668,0.757,1.002c0.504,0.083,1.009,0.167,1.513,0.25c-0.126-0.501-0.252-1.002-0.378-1.503
			c2.006,0.386,3.876,0.887,6.054,0.501c0.126-0.501,0.252-1.002,0.378-1.503c-0.757-0.584-1.513-1.169-2.27-1.753
			c2.02,0.641,4.563,0.831,7.945,0.751c0.378,0.584,0.757,1.169,1.135,1.753c-1.639-0.417-3.279-0.835-4.919-1.252
			c-0.126,0.25-0.252,0.501-0.378,0.751c0.252,0,0.505,0,0.757,0c2.668,1.645,5.387,0.599,7.945-0.25
			c0.757,0.501,1.514,1.002,2.27,1.503c2.66-1.933,6.687-0.684,10.594-0.751c0.126,0.334,0.252,0.668,0.378,1.002
			c-3.783,0.167-7.567,0.334-11.35,0.501c2.071,2.502,20.459-0.055,24.214-0.501c3.279,0.083,6.558,0.167,9.837,0.25
			c29.502-3.158,63.954-2.987,96.857-3.005c0.378,0.501,0.757,1.002,1.135,1.503c-6.044-0.354-11.222-0.065-17.026,0.501
			c0.126-0.417,0.252-0.835,0.378-1.252c-0.126,0-0.252,0-0.378,0c-0.633,0.523-0.604,0.493-0.757,1.502
			c29.13-0.25,58.268-0.501,87.398-0.751c7.494,0.714,18.037-2.083,21.944,0.501c-0.252,0.417-0.505,0.835-0.757,1.252
			c-2.184,1.865-9.321,0.309-12.485,0.501c0.365-0.908-0.025-0.51,0.757-1.002c0-0.25,0-0.501,0-0.751
			c-2.469,0.314-2.001,0.261-1.892,1.753c-1.47-0.625-1.678-1.312-3.405-1.753c-0.126,0.584-0.252,1.169-0.378,1.753
			c-6.57-1.478-20.706,2.073-30.646,0.751c-0.126,0-0.252,0-0.378,0c0,0.584,0,1.169,0,1.753c2.522-0.334,5.045-0.668,7.567-1.002
			c10.42,0.724,24.458,1.989,35.186,0.25c0.434,1.096,0.795,1.404,1.892,2.003c-0.252,1.085-0.504,2.17-0.757,3.255
			c0.126,0.083,0.252,0.167,0.378,0.25c9.059-0.529,17.696-1.097,26.484-0.751c-0.378-1.252-0.757-2.504-1.135-3.756
			c1.892,0,3.784,0,5.675,0c0.252,0.25,0.504,0.501,0.757,0.751c-1.639-0.083-3.279-0.167-4.918-0.25c0,0.083,0,0.167,0,0.25
			c0.883,1.252,1.766,2.504,2.648,3.756c6.203-2.68,11.54,0.91,17.404-0.501c0.252,0,0.505,0,0.757,0
			c-0.504-0.835-1.009-1.67-1.513-2.504c1.505,0.732,2.402,1.41,3.027,2.755c1.009-0.25,2.018-0.501,3.027-0.751
			c0.252,0.334,0.505,0.668,0.757,1.002c6.356-1.085,33.604-2.527,38.591-0.501c0.638,0.402,0.716,0.952,1.135,1.503
			c0.126,0.167,0.252,0.334,0.378,0.501c0-0.751,0-1.503,0-2.254c8.891-1.453,23.636,1.262,31.403-0.501
			c4.505-1.023,33.445-1.813,41.996-0.751c-0.126-0.334-0.252-0.668-0.378-1.002c-1.139-1.168-1.723-0.429-3.027-1.252
			c2.648-0.417,5.297-0.835,7.945-1.252c7.005,0.4,11.981,3.696,19.296,1.753c0.252,0.501,0.504,1.002,0.757,1.502
			c0.63-0.083,1.261-0.167,1.892-0.25c1.224-0.573,1.287-0.692,0.757-1.753c0.757,0.501,1.514,1.002,2.27,1.502
			c0.504,0.083,1.009,0.167,1.513,0.25c0-0.751,0-1.503,0-2.254c0.126,0,0.252,0,0.378,0c2.736,0.379,26.818,0.625,34.43,0
			c0.5-0.041,4.918-1.002,4.918-1.002c10.51,3.282,39.361,1.837,51.834,1.753c0.126-0.417,0.252-0.835,0.378-1.252
			c0-0.083,0-0.167,0-0.25c-5.276-1.003-16.19,0.133-25.728-1.002c-2.144,0.083-4.288,0.167-6.432,0.25
			c-3.59-0.639-3.381-2.464-8.702-2.504c4.632-1.201,11.733-0.228,16.269,0.25c3.783-0.083,7.567-0.167,11.35-0.25
			c9.738-0.001,17.219,0.075,26.106,1.002c8.398,0.876,16.737-0.789,23.836-0.25c18.073,1.371,38.813,0.905,57.887,2.504
			c3.945,0.331,8.797-1.7,14.755-1.252c-0.504-1.168-1.009-2.337-1.513-3.506c2.404,0.918,7.81,0.83,12.107,1.002
			c0.757-1.335,1.514-2.671,2.27-4.007c-1.387-0.083-2.775-0.167-4.162-0.25c-0.378-0.167-0.757-0.334-1.135-0.501
			c2.27-0.083,4.54-0.167,6.81-0.25c0.932,1.062,0.849,0.566,0.378,1.753c0.378,0.25,0.757,0.501,1.135,0.751
			c0.905-1.555,0.855-1.487,2.648-2.755c-0.252-0.668-0.504-1.336-0.757-2.003c-4.918-0.584-9.838-1.169-14.755-1.753
			c0-0.083,0-0.167,0-0.25c4.239-0.025,12.041,1.368,16.269,0c0.126,0,0.252,0,0.378,0c0.123,0.457,0.276,1.258,0.13,2.238
			C736.608,39.397,736.157,40.177,735.884,40.581z M197.119,21.048c-0.252-0.334-0.504-0.668-0.757-1.002c0.252,0,0.504,0,0.757,0
			c0.252,0.25,0.505,0.501,0.757,0.751C197.623,20.881,197.371,20.965,197.119,21.048z M205.821,20.547c-0.631,0-1.261,0-1.892,0
			c-0.126-0.167-0.252-0.334-0.378-0.501c0.126-0.167,0.252-0.334,0.378-0.501c0.757-0.167,1.513-0.334,2.27-0.501
			c0.378,0.167,0.757,0.334,1.135,0.501C206.829,19.879,206.325,20.213,205.821,20.547z M214.901,20.046c-1.765,0-3.531,0-5.297,0
			c0-0.25,0-0.501,0-0.751c2.27,0,4.54,0,6.81,0C215.91,19.546,215.405,19.796,214.901,20.046z M152.474,43.335
			c0.155,0.853,0.329,0.534-0.378,1.252c-0.252-0.25-0.505-0.501-0.757-0.751c0.378-0.417,0.757-0.835,1.135-1.252
			c0.252,0,0.504,0,0.757,0C152.741,43.331,153.246,42.884,152.474,43.335z M258.411,24.053c0.252,0,0.505,0,0.757,0
			c0.252,0.25,0.504,0.501,0.757,0.751c-0.126,0.167-0.252,0.334-0.378,0.501C257.8,24.843,258.203,25.124,258.411,24.053z
			 M255.384,18.544c0.631-0.334,1.261-0.668,1.892-1.002c0.06,0.656,0.412,0.179-0.378,0.751c-0.504,0.167-1.009,0.334-1.513,0.501
			C255.384,18.711,255.384,18.627,255.384,18.544z M256.519,24.804c-0.252,0.167-0.505,0.334-0.757,0.501
			c-0.252-0.334-0.504-0.668-0.757-1.002C255.51,24.47,256.014,24.637,256.519,24.804z M253.114,24.554
			c0.126,0.167,0.252,0.334,0.378,0.501c-1.129-0.324-0.454,0.011-1.135-0.501C252.609,24.554,252.862,24.554,253.114,24.554z
			 M232.683,45.088c0-0.417,0-0.835,0-1.252c0.504,0.083,1.009,0.167,1.513,0.25c1.136,0.481,0.635,0.043,1.135,1.002
			C234.449,45.088,233.566,45.088,232.683,45.088z M241.385,25.305c-2.044,0.308-4.572,0.907-6.054,1.002
			c-0.504-0.083-1.009-0.167-1.513-0.25c-0.512-0.768-0.596-0.629-0.378-1.502c2.991-0.038,5.955,0.013,7.945,0.501
			C241.385,25.138,241.385,25.222,241.385,25.305z M243.655,25.055c1.496,0.136,1.233,0.191,2.27-0.501c1.387,0,2.775,0,4.162,0
			c0.252,0.25,0.504,0.501,0.757,0.751C249.454,25.436,244.956,25.953,243.655,25.055z M251.6,44.587c-0.126,0-0.252,0-0.378,0
			c0.7-1.181,1.207-0.925,2.648-1.502c2.522,0.167,5.045,0.334,7.567,0.501c0.126,0.167,0.252,0.334,0.378,0.501
			C257.808,44.385,254.513,43.727,251.6,44.587z M265.978,25.055c-1.789-0.384-2.109-0.511-3.783,0c-0.126,0-0.252,0-0.378,0
			c0.252-0.334,0.504-0.668,0.757-1.002c1.135,0.083,2.27,0.167,3.405,0.25C265.978,24.554,265.978,24.804,265.978,25.055z
			 M272.409,24.303c-0.126,0.167-0.252,0.334-0.378,0.501c-2.162,0.351-3.562,0.408-4.54-0.751c2.451,0.278,2.299,0.212,4.919,0
			C272.409,24.136,272.409,24.22,272.409,24.303z M271.653,16.541c0.378-0.25,0.757-0.501,1.135-0.751
			C272.506,16.337,273.176,16.205,271.653,16.541z M275.815,24.804c-0.631-0.083-1.261-0.167-1.892-0.25c0-0.25,0-0.501,0-0.751
			c0.631,0.25,1.261,0.501,1.892,0.751C275.815,24.637,275.815,24.721,275.815,24.804z M282.246,14.287
			c0.126-0.25,0.252-0.501,0.378-0.751c0.504,0,1.009,0,1.513,0c0,0.083,0,0.167,0,0.25c-0.779,0.547-0.51,0.486-1.892,0.751
			C282.246,14.454,282.246,14.37,282.246,14.287z M277.328,24.554c0-0.167,0-0.334,0-0.501c1.513-0.167,3.027-0.334,4.54-0.501
			c1.009,0,2.018,0,3.027,0c0.126,0.334,0.252,0.668,0.378,1.002C282.625,24.554,279.976,24.554,277.328,24.554z M287.922,23.803
			c0.112,0.572,0.421,0.489-1.135,0.751C287.165,24.303,287.543,24.053,287.922,23.803z M287.543,44.337
			c-0.126-0.167-0.252-0.334-0.378-0.501c0.378-0.334,0.757-0.668,1.135-1.002c1.009,0.083,2.018,0.167,3.027,0.25
			c0.126,0.167,0.252,0.334,0.378,0.501C290.318,43.836,288.93,44.086,287.543,44.337z M290.192,24.303
			c-0.126-0.167-0.252-0.334-0.378-0.501c2.449,0.146,5.968,0.522,7.567-0.25c0.239,0.388,0.69,0.296,0,0.501
			C295.45,24.683,292.489,24.553,290.192,24.303z M299.272,44.086c-0.504,0-1.009,0-1.513,0c-0.126,0-0.252,0-0.378,0
			c-0.658-0.953-0.408-0.314,0-1.252c0.504,0.083,1.009,0.167,1.513,0.25c0.126,0.25,0.252,0.501,0.378,0.751
			C299.272,43.919,299.272,44.003,299.272,44.086z M305.704,24.053c-0.631,0-1.261,0-1.892,0c-0.252-0.167-0.505-0.334-0.757-0.501
			c0.126-0.083,0.252-0.167,0.378-0.25c0.757,0.083,1.513,0.167,2.27,0.25C305.704,23.719,305.704,23.886,305.704,24.053z
			 M306.082,43.586c0-0.25,0-0.501,0-0.751c1.513,0.083,3.027,0.167,4.54,0.25c0.126,0.25,0.252,0.501,0.378,0.751
			C309.362,43.753,307.722,43.669,306.082,43.586z M315.163,13.035c-0.504,0-1.009,0-1.513,0c-0.126-0.25-0.252-0.501-0.378-0.751
			c1.366,0.176,1.141,0.1,1.892,0.501C315.163,12.868,315.163,12.951,315.163,13.035z M321.595,13.285c0-0.334,0-0.668,0-1.002
			c0.252,0.334,0.504,0.668,0.757,1.002C322.099,13.285,321.847,13.285,321.595,13.285z M322.73,50.848
			c-1.387-0.417-2.775-0.835-4.162-1.252c1.387,0.25,2.775,0.501,4.162,0.751C322.73,50.514,322.73,50.681,322.73,50.848z
			 M331.053,12.283c0.126,0.167,0.252,0.334,0.378,0.501c-1.034,0.442-1.329,0.315-3.405,0.25c-0.126-0.334-0.252-0.668-0.378-1.002
			C328.783,12.116,329.918,12.2,331.053,12.283z M329.161,49.345c-1.009-0.334-2.018-0.668-3.027-1.002c1.009,0,2.018,0,3.027,0
			C329.161,48.677,329.161,49.011,329.161,49.345z M337.107,45.839c-1.21-0.346-1.169,0.202-1.892-0.501
			c-1.666,0.412-1.302,0.476-1.892,1.503c-0.378,0-0.757,0-1.135,0c-1.261-0.501-2.522-1.002-3.783-1.503
			c-0.126-0.167-0.252-0.334-0.378-0.501c0.63-0.083,1.261-0.167,1.892-0.25c2.396,0.167,4.793,0.334,7.189,0.501
			C337.107,45.338,337.107,45.589,337.107,45.839z M339.755,47.843c-0.126,0-0.252,0-0.378,0c-0.378-0.417-0.757-0.835-1.135-1.252
			c0-0.501,0-1.002,0-1.502c0.504-0.083,1.009-0.167,1.513-0.25c2.018,0,4.036,0,6.054,0
			C343.315,45.912,340.96,45.859,339.755,47.843z M356.781,45.338c-3.088,0.483-6.274,1.639-8.702,0.751c-0.252,0-0.505,0-0.757,0
			c0-0.083,0-0.167,0-0.25c3.573,0.416,4.121-0.026,6.81-1.252c0.757,0,1.513,0,2.27,0c0.126,0.167,0.252,0.334,0.378,0.501
			C356.781,45.172,356.781,45.255,356.781,45.338z M361.699,7.776c-0.757,0.417-1.513,0.835-2.27,1.252
			c-0.631-0.417-1.261-0.835-1.892-1.252C359.645,8.136,359.531,8.076,361.699,7.776z M363.213,46.34
			c-1.135-0.167-2.27-0.334-3.405-0.501c-0.126-0.167-0.252-0.334-0.378-0.501c1.261-0.584,2.522-1.169,3.783-1.753
			c0.862,0.622,0.487,1.133,0.757,2.003C363.717,45.839,363.465,46.09,363.213,46.34z M366.618,44.337
			c1.48,0.097,3.332,0.2,4.162,0.751C369.392,44.838,368.005,44.587,366.618,44.337z M397.264,11.282c0,0.083,0,0.167,0,0.25
			c-0.252,0.167-0.505,0.334-0.757,0.501c-0.378-0.25-0.757-0.501-1.135-0.751C396.003,11.282,396.633,11.282,397.264,11.282z
			 M385.157,22.3c0.252,0.083,0.504,0.167,0.757,0.25c-0.252,0.167-0.504,0.334-0.757,0.501c-0.126-0.083-0.252-0.167-0.378-0.25
			C384.904,22.634,385.031,22.467,385.157,22.3z M380.995,45.088c0.126-0.083,0.252-0.167,0.378-0.25
			c2.886,0.963,8.64,2.078,12.107,0.25c1.164,0.781,2.768,1.158,4.162,1.252C393.321,47.47,383.704,46.901,380.995,45.088z
			 M394.615,50.848c1.135-0.501,2.27-1.002,3.405-1.503c0.757,0.083,1.514,0.167,2.27,0.25c0.252,0.25,0.505,0.501,0.757,0.751
			C398.074,50.2,397.633,50.885,394.615,50.848z M397.642,45.088c1.639-0.25,3.279-0.501,4.919-0.751
			c1.261,0.167,2.522,0.334,3.783,0.501c0.378,0.083,0.757,0.167,1.135,0.25c0.126,0.25,0.252,0.501,0.378,0.751
			C404.803,46.044,401.488,45.666,397.642,45.088z M408.614,7.776c1.465,0.26,1.14,0.088,1.892,0.751
			C409.875,8.277,409.245,8.026,408.614,7.776z M426.018,8.026c0-0.083,0-0.167,0-0.25c0.378-0.167,0.757-0.334,1.135-0.501
			C427.265,7.847,427.574,7.764,426.018,8.026z M480.122,44.838c-0.941,0.619-1.707,0.831-3.405,1.002
			c0.219-0.494,0.657-0.579,1.513-1.252c0.631,0,1.261,0,1.892,0C480.122,44.671,480.122,44.754,480.122,44.838z M495.256,46.591
			c-0.746,0.4-0.517,0.34-1.892,0.501c0-0.083,0-0.167,0-0.25s0-0.167,0-0.25c0.252-0.083,0.504-0.167,0.757-0.25
			c0.378,0,0.757,0,1.135,0C495.256,46.424,495.256,46.507,495.256,46.591z M505.849,50.347c0-0.083,0-0.167,0-0.25
			c0.883-0.501,1.766-1.002,2.648-1.503c1.179,0.507,0.81,0.119,1.135,1.252C508.372,50.013,507.11,50.18,505.849,50.347z
			 M549.359,11.031c0,0.501,0,1.002,0,1.503c-1.135,0.167-2.27,0.334-3.405,0.501c-0.252-0.167-0.504-0.334-0.757-0.501
			C546.877,12.12,547.856,12.111,549.359,11.031z M543.305,10.781c0.378,0,0.757,0,1.135,0c-0.883,0.584-1.766,1.169-2.648,1.753
			c-0.252-0.167-0.504-0.334-0.757-0.501C541.792,11.616,542.549,11.198,543.305,10.781z M549.359,46.841
			c-3.018,1.587-29.825-0.166-31.781-1.753c0.126-0.083,0.252-0.167,0.378-0.25c9.147,1.856,19.557-1.145,31.024,0.501
			c0.252,0.417,0.505,0.835,0.757,1.252C549.611,46.674,549.485,46.758,549.359,46.841z M558.818,11.282c0.126,0,0.252,0,0.378,0
			c-0.126,0.334-0.252,0.668-0.378,1.002c-0.126,0-0.252,0-0.378,0C558.566,11.95,558.692,11.616,558.818,11.282z M555.034,47.843
			c0-0.167,0-0.334,0-0.501c-0.252,0-0.504,0-0.757,0c1.009-0.25,2.018-0.501,3.027-0.751c0.757,0.083,1.513,0.167,2.27,0.25
			c0.126,0.25,0.252,0.501,0.378,0.751C557.765,47.43,556.707,47.377,555.034,47.843z M568.655,47.342
			c-1.513,0.167-3.027,0.334-4.54,0.501c-0.252-0.501-0.504-1.002-0.757-1.503c-3.747-0.803-7.496-0.846-10.594,1.002
			c-0.378,0-0.757,0-1.135,0c-0.126-0.417-0.252-0.835-0.378-1.252c0.504-0.334,1.009-0.668,1.513-1.002
			c4.035,0.167,8.072,0.334,12.107,0.501c0.126,0.501,0.252,1.002,0.378,1.503C566.385,47.175,567.52,47.258,568.655,47.342z
			 M662.485,22.801c-0.63,0-1.261,0-1.892,0c0-0.083,0-0.167,0-0.25c0.504-0.083,1.009-0.167,1.513-0.25c0.378,0,0.757,0,1.135,0
			C662.989,22.467,662.737,22.634,662.485,22.801z M672.7,46.591c0.252-0.083,0.505-0.167,0.757-0.25c0.126,0,0.252,0,0.378,0
			C673.08,46.778,673.767,46.885,672.7,46.591z M675.348,24.053c-0.126,0-0.252,0-0.378,0c-0.126-0.25-0.252-0.501-0.378-0.751
			c0.252-0.083,0.504-0.167,0.757-0.25c0.504,0.167,1.009,0.334,1.513,0.501c0.252,0,0.505,0,0.757,0
			C676.862,23.719,676.105,23.886,675.348,24.053z M680.267,28.31c0-0.25,0-0.501,0-0.751c2.27,0.25,4.54,0.501,6.81,0.751
			c0.504,0.334,1.009,0.668,1.513,1.002C687.671,29.577,683.519,28.42,680.267,28.31z M689.726,29.312
			c0.126-0.334,0.252-0.668,0.378-1.002c0.126,0,0.252,0,0.378,0c0.252,0.334,0.504,0.668,0.757,1.002
			C690.735,29.312,690.23,29.312,689.726,29.312z M696.157,47.843c0-0.083,0-0.167,0-0.25c0.378-0.083,0.757-0.167,1.135-0.25
			c0.504,0,1.009,0,1.513,0C697.923,47.509,697.04,47.676,696.157,47.843z M702.589,47.843c-0.504,0-1.009,0-1.513,0
			c0-0.083,0-0.167,0-0.25c0.252-0.167,0.504-0.334,0.757-0.501c0.504,0.083,1.009,0.167,1.513,0.25
			C702.347,47.596,703.04,47.217,702.589,47.843z"/>
        <path d="M383.643,7.526c0.088,0.002-0.03,0.097-0.378,0C383.391,7.526,383.517,7.526,383.643,7.526z"/>
        <path d="M720.372,54.353c0.126,0,0.252,0,0.378,0c0.126-0.167,0.252-0.334,0.378-0.501c0-0.334,0-0.668,0-1.002
			c-0.504,0-1.009,0-1.513,0c-0.126,0.417-0.252,0.835-0.378,1.252c0.126,0.083,0.252,0.167,0.378,0.25
			C719.867,54.353,720.12,54.353,720.372,54.353z"/>
        <path d="M693.131,52.1c3.344,2.596,21.826,1.121,24.593,1.252c0.126-0.167,0.252-0.334,0.378-0.501
			c-1.716-0.835-16.85-0.788-22.322-1.753C694.896,51.432,694.013,51.766,693.131,52.1z M697.292,52.1c0,0.083,0,0.167,0,0.25
			c-0.63,0.083-1.261,0.167-1.892,0.25c-0.252-0.167-0.505-0.334-0.757-0.501c0.126-0.083,0.252-0.167,0.378-0.25
			c0.63,0,1.261,0,1.892,0C697.04,51.933,697.166,52.016,697.292,52.1z"/>
        <path d="M44.645,44.587c0.378-0.083,0.757-0.167,1.135-0.25c-0.151-1.313-0.341-1.669-1.513-2.254
			c-0.757-0.167-1.513-0.334-2.27-0.501c0,0.584,0,1.169,0,1.753c0.504,0.501,1.009,1.002,1.513,1.502
			C43.888,44.754,44.267,44.671,44.645,44.587z"/>
        <path d="M450.655,0c-0.092,0.05-0.184,0.101-0.276,0.15c0.077,0.205,0.155,0.41,0.232,0.615l0.757,0.501
			c1.009,0.083,2.018,0.167,3.027,0.25c0.063-0.167,0.126-0.334,0.189-0.501C453.328,0.719,451.996,0.301,450.655,0z"/>
        <path d="M448.719,4.02c0.252-0.25,0.505-0.501,0.757-0.751c-0.504-0.167-1.009-0.334-1.513-0.501
			c-0.252,0.25-0.505,0.501-0.757,0.751c0.126,0.167,0.252,0.334,0.378,0.501C447.962,4.02,448.341,4.02,448.719,4.02z"/>
        <path d="M500.552,3.519c-0.378,0-0.757,0-1.135,0c-0.378,0.501-0.757,1.002-1.135,1.503c0.631-0.083,1.261-0.167,1.892-0.25
			C500.3,4.354,500.426,3.936,500.552,3.519z"/>
        <path d="M505.471,8.778c0.378-0.668,0.757-1.336,1.135-2.003c-3.062,0.085-3.989-0.073-6.81-0.25
			c-0.252,0.334-0.505,0.668-0.757,1.002c0,0.334,0,0.668,0,1.002c0.883,0.083,1.766,0.167,2.648,0.25
			c-0.631-0.25-1.261-0.501-1.892-0.751c0.378-0.334,0.757-0.668,1.135-1.002C503.02,8.064,504.029,8.371,505.471,8.778z"/>
        <path d="M496.769,6.023c0.378,0.25,0.757,0.501,1.135,0.751C497.005,6.044,498.278,6.385,496.769,6.023z"/>
        <path d="M484.284,4.27c0.378-0.167,0.757-0.334,1.135-0.501c0.252-0.167,0.505-0.334,0.757-0.501c-0.378,0-0.757,0-1.135,0
			c-0.252,0.25-0.504,0.501-0.757,0.751C484.284,4.103,484.284,4.187,484.284,4.27z"/>
        <path d="M493.742,8.778c0.504,0,1.009,0,1.513,0c0-0.334,0-0.668,0-1.002c-0.279-0.607-0.57-1-3.027-1.002
			C492.733,7.442,493.238,8.11,493.742,8.778z"/>
        <path d="M400.291,5.272c0.757,0.083,1.514,0.167,2.27,0.25c0.252-0.25,0.504-0.501,0.757-0.751c-0.504,0-1.009,0-1.513,0
			C401.3,4.938,400.795,5.105,400.291,5.272z"/>
        <path d="M243.655,50.096c0.378-0.25,0.757-0.501,1.135-0.751c0-0.083,0-0.167,0-0.25c-1.639-0.167-3.279-0.334-4.918-0.501
			c-0.252,0.417-0.505,0.835-0.757,1.252c0.126,0.167,0.252,0.334,0.378,0.501C241.997,50.045,241.953,49.933,243.655,50.096z"/>
        <path d="M429.045,4.52c0-0.417,0-0.835,0-1.252c-0.63-0.167-1.261-0.334-1.892-0.501c-0.126,0.167-0.252,0.334-0.378,0.501
			c0.378,0.417,0.757,0.835,1.135,1.252C428.288,4.52,428.667,4.52,429.045,4.52z"/>
        <path d="M522.875,10.28c0.895,0.462,0.13,0.349,1.135,0C523.631,10.28,523.253,10.28,522.875,10.28z"/>
        <path d="M524.01,11.282c-1.765-0.083-3.531-0.167-5.297-0.25C520.475,11.583,521.737,11.369,524.01,11.282z"/>
        <path d="M526.28,5.021c0.126,0,0.252,0,0.378,0c0.504-0.417,1.009-0.835,1.513-1.252c-0.378,0-0.757,0-1.135,0
			C526.784,4.187,526.532,4.604,526.28,5.021z"/>
        <path d="M580.005,12.033c0.504,0.25,1.009,0.501,1.513,0.751c1.083-0.624,1.27-0.735,1.513-2.003
			c-0.504-0.167-1.009-0.334-1.513-0.501c-0.504,0.501-1.009,1.002-1.513,1.503C580.005,11.866,580.005,11.95,580.005,12.033z"/>
        <path d="M587.95,11.282c0.252,0,0.505,0,0.757,0c0-0.25,0-0.501,0-0.751c-0.378-0.083-0.757-0.167-1.135-0.25
			c-0.706,0.567-0.705,0.341-1.135,1.252C586.941,11.449,587.446,11.365,587.95,11.282z"/>
        <path d="M147.934,20.046c0.339,1.232,0.116,1.017,1.513,1.503c0.883,0,1.766,0,2.648,0c0.632-0.346,0.669-0.57,1.135-1.002
			c-0.252-0.501-0.504-1.002-0.757-1.503c-0.883,0-1.766,0-2.648,0c-1.135,0.083-2.27,0.167-3.405,0.25
			c-0.252,0.751-0.504,1.503-0.757,2.254c0.126,0.167,0.252,0.334,0.378,0.501c0.504,0.25,1.009,0.501,1.513,0.751
			c0.118-0.798-0.183-1.102-0.757-2.003c0.126-0.167,0.252-0.334,0.378-0.501C147.429,20.213,147.681,20.13,147.934,20.046z"/>
        <path d="M143.015,22.05c1.231-0.674,1.411-0.735,1.513-2.254c-1.135-0.083-2.27-0.167-3.405-0.25
			c-6.114,1.702-15.603,0.423-20.809,1.252c-2.9,0.501-5.802,1.002-8.702,1.503c-0.252,0.417-0.504,0.835-0.757,1.252
			c-0.378,0.334-0.757,0.668-1.135,1.002c2.652-0.289,7.927-0.535,9.08-2.003c0.126,0,0.252,0,0.378,0
			c-0.126,0.334-0.252,0.668-0.378,1.002C125.427,23.508,137.055,20.982,143.015,22.05z"/>
        <path d="M69.616,27.058c1.572-0.329,1.199-0.129,1.892-1.002c-0.504-0.167-1.009-0.334-1.514-0.501
			c-0.252,0.334-0.504,0.668-0.757,1.002C69.364,26.724,69.49,26.891,69.616,27.058z"/>
        <path d="M80.588,24.554c-0.353,0.974-0.202,1.215,0.378,2.003c0.757-0.167,1.514-0.334,2.27-0.501
			c0.378-0.167,0.757-0.334,1.135-0.501c-0.631,0.083-1.261,0.167-1.892,0.25C81.849,25.389,81.218,24.971,80.588,24.554z"/>
        <path d="M96.857,24.804c1.207-0.533,0.925-0.257,1.135-1.503c-3.909,0.167-7.82,0.334-11.729,0.501
			c-0.378,0.501-0.757,1.002-1.135,1.503c0.126,0.167,0.252,0.334,0.378,0.501c1.639-0.083,3.279-0.167,4.918-0.25
			c0-0.083,0-0.167,0-0.25c-0.74-0.294-1.325-0.338-1.892-0.751c-0.252,0-0.505,0-0.757,0c0-0.083,0-0.167,0-0.25
			C91.249,24.591,94.041,25.586,96.857,24.804z"/>
        <path d="M77.183,27.058c1.267-0.566,1.291-0.731,1.892-1.753c-0.252-0.167-0.505-0.334-0.757-0.501
			c-0.504,0.751-1.009,1.503-1.513,2.254C76.93,27.058,77.057,27.058,77.183,27.058z"/>
        <path d="M72.264,26.808c1.721-0.36,1.548-0.507,3.027,0c0.126,0,0.252,0,0.378,0c0.126-0.334,0.252-0.668,0.378-1.002
			c-0.78-0.305-1.641-0.242-3.027-0.501c-0.252,0.083-0.505,0.167-0.757,0.25C72.264,25.973,72.264,26.39,72.264,26.808z"/>
        <path d="M102.532,22.801c-1.009-0.083-2.018-0.167-3.027-0.25c-0.126,0.167-0.252,0.334-0.378,0.501c0,0.417,0,0.835,0,1.252
			c1.639,0.083,3.279,0.167,4.919,0.25c0.126-0.083,0.252-0.167,0.378-0.25c-0.126-0.751-0.252-1.502-0.378-2.254
			c-0.378,0-0.757,0-1.135,0C102.784,22.3,102.658,22.551,102.532,22.801z"/>
        <path d="M108.964,24.053c0.378-0.668,0.757-1.336,1.135-2.003c-2.257,0.297-1.905,0.297-4.162,0
			c-0.252,0.751-0.505,1.502-0.757,2.254c0.252,0.083,0.505,0.167,0.757,0.25C106.946,24.387,107.955,24.22,108.964,24.053z"/>
        <path d="M343.16,7.776c1.135,0,2.27,0,3.405,0c0-0.334,0-0.668,0-1.002c-1.009,0-2.018,0-3.027,0
			C343.413,7.108,343.286,7.442,343.16,7.776z"/>
        <path d="M309.487,8.527c-0.378,0-0.757,0-1.135,0c0,0.167,0,0.334,0,0.501c0.378-0.083,0.757-0.167,1.135-0.25
			C309.487,8.694,309.487,8.611,309.487,8.527z"/>
        <path d="M66.589,27.058c-0.846-0.109-0.586-0.244-2.27-0.501c0,0.083,0,0.167,0,0.25c0.504,0.334,1.009,0.668,1.513,1.002
			c0.378-0.083,0.757-0.167,1.135-0.25c0.378-0.417,0.757-0.835,1.135-1.252c-0.504,0-1.009,0-1.513,0c0,0.167,0,0.334,0,0.501
			C66.589,26.891,66.589,26.975,66.589,27.058z"/>
        <path d="M703.346,28.561c0,0.334,0,0.668,0,1.002c0.252,0.083,0.505,0.167,0.757,0.25c0.378,0,0.757,0,1.135,0
			C704.523,28.9,704.972,28.956,703.346,28.561z"/>
        <path d="M716.21,30.564c0.126,0.167,0.252,0.334,0.378,0.501c0.502-0.972,0.388-1.093-1.135-1.502
			C715.705,29.896,715.958,30.23,716.21,30.564z"/>
        <path d="M710.913,29.562c-0.252,0-0.504,0-0.757,0c0,0.167,0,0.334,0,0.501C710.409,29.896,710.661,29.729,710.913,29.562z"/>
        <path d="M719.615,31.315c0.252-0.083,0.505-0.167,0.757-0.25c0-0.334,0-0.668,0-1.002c-0.378,0-0.757,0-1.135,0
			c0,0.334,0,0.668,0,1.002C719.363,31.148,719.489,31.232,719.615,31.315z"/>
        <path d="M627.298,13.536c0.757-0.501,1.513-1.002,2.27-1.503c-1.325-0.896-3.967-0.859-6.81-0.751
			c-0.126,0.334-0.252,0.668-0.378,1.002c0,0.25,0,0.501,0,0.751C625.851,12.761,624.695,12.591,627.298,13.536z M626.92,12.033
			c0.126,0.083,0.252,0.167,0.378,0.25c0.252,0.083,0.505,0.167,0.757,0.25c-0.63-0.083-1.261-0.167-1.892-0.25
			C626.416,12.2,626.668,12.116,626.92,12.033z"/>
        <path d="M631.082,12.534c0.378,0,0.757,0,1.135,0c0-0.083,0-0.167,0-0.25c-0.378-0.167-0.757-0.334-1.135-0.501
			C631.082,12.033,631.082,12.283,631.082,12.534z"/>
        <path d="M323.865,57.609c0.682-0.332,0.218-0.268,0.378-0.501C324.117,57.275,323.991,57.442,323.865,57.609z"/>
        <path d="M291.705,46.09c-0.252,0.417-0.505,0.835-0.757,1.252c0.631-0.083,1.261-0.167,1.892-0.25
			c0.252-0.25,0.504-0.501,0.757-0.751C292.966,46.257,292.336,46.173,291.705,46.09z"/>
        <path d="M326.135,56.858c-0.126,0.083-0.252,0.167-0.378,0.25c0,0.083,0,0.167,0,0.25c0.252,0.083,0.504,0.167,0.757,0.25
			c0.126-0.083,0.252-0.167,0.378-0.25C326.639,57.192,326.387,57.025,326.135,56.858z"/>
        <path d="M307.974,53.853c1.814,0.277,1.762-0.262,2.648-1.753c-1.926-0.357-2.167-0.481-3.783-1.502
			C306.556,51.747,307.375,52.661,307.974,53.853z"/>
        <path d="M309.109,51.098c1.135,0.083,2.27,0.167,3.405,0.25c0.126-0.167,0.252-0.334,0.378-0.501
			c-1.135-0.083-2.27-0.167-3.405-0.25C309.361,50.764,309.235,50.931,309.109,51.098z"/>
        <path d="M227.008,50.347c0-0.083,0-0.167,0-0.25c-1.009-0.417-2.018-0.835-3.027-1.252c0,0.334,0,0.668,0,1.002
			C224.99,50.013,225.999,50.18,227.008,50.347z"/>
        <path d="M220.576,48.844c0.77,0.516,0.667,0.423,2.27,0.501C222.089,49.178,221.333,49.011,220.576,48.844z"/>
        <path d="M311.379,52.601c0.126,0.501,0.252,1.002,0.378,1.503c2.105,0.245,2.898,0.035,4.54-0.501
			c0.252-0.584,0.504-1.169,0.757-1.753c-0.63-0.417-1.261-0.835-1.892-1.252c-1.129,0.939-1.934,0.75-3.784,1.252
			c1.162,0.428,2.135,0.455,3.405,0.25c0.252,0.167,0.505,0.334,0.757,0.501c-1.261,0-2.522,0-3.784,0
			C311.631,52.601,311.505,52.601,311.379,52.601z"/>
        <path d="M317.433,46.591c0.252,0,0.505,0,0.757,0c0-0.167,0-0.334,0-0.501c-0.883-0.167-1.766-0.334-2.648-0.501
			c-0.126,0.167-0.252,0.334-0.378,0.501C316.113,46.743,316.052,46.805,317.433,46.591z"/>
        <path d="M233.44,49.345c0.252,0.25,0.504,0.501,0.757,0.751C233.835,49.427,234.589,49.832,233.44,49.345z"/>
        <path d="M300.029,45.839c-0.378,0.167-0.757,0.334-1.135,0.501c0.631,0,1.261,0,1.892,0
			C300.533,46.173,300.281,46.006,300.029,45.839z"/>
        <path d="M278.841,55.105c0.252-0.25,0.505-0.501,0.757-0.751c-0.916-0.634-0.772-0.629-2.648-0.751
			c-0.209,1.249-0.748,1.223,1.513,1.503C278.589,55.105,278.715,55.105,278.841,55.105z"/>
        <path d="M270.896,54.604c-0.504,0.083-1.009,0.167-1.513,0.25C270.837,55.227,270.629,54.831,270.896,54.604z"/>
        <path d="M268.626,54.604c-0.682-0.505,0.009-0.185-1.135-0.501C267.869,54.27,268.248,54.437,268.626,54.604z"/>
        <path d="M271.653,49.846c0.252-0.501,0.505-1.002,0.757-1.503c-2.27-0.083-4.54-0.167-6.81-0.25
			c-2.396,0.167-4.793,0.334-7.189,0.501c-0.252,0.25-0.504,0.501-0.757,0.751C260.103,50.926,267.683,49.82,271.653,49.846z"/>
        <path d="M251.6,54.353c0.126,0,0.252,0,0.378,0c0.504-0.083,1.009-0.167,1.513-0.25c-0.252-0.334-0.504-0.668-0.757-1.002
			c-0.378,0.334-0.757,0.668-1.135,1.002C251.6,54.187,251.6,54.27,251.6,54.353z"/>
        <path d="M256.141,49.846c0.126-0.083,0.252-0.167,0.378-0.25c0.126-0.25,0.252-0.501,0.378-0.751
			c-0.126-0.167-0.252-0.334-0.378-0.501c-0.883,0.083-1.766,0.167-2.648,0.25c-1.753-0.144-1.204,0.476-3.027,1.002
			c-0.573-1.594-2.021-1.421-4.918-1.252c-0.536,0.59-0.647,0.658-0.757,1.753c0.126,0.083,0.252,0.167,0.378,0.25
			c0.252,0,0.504,0,0.757,0c0.378-0.417,0.757-0.835,1.135-1.252c0.504,0,1.009,0,1.513,0c-0.252,0.417-0.505,0.835-0.757,1.252
			C252.194,50.182,254.337,49.42,256.141,49.846z"/>
        <path d="M274.68,55.105c0-0.918,0-1.837,0-2.755c-0.378,0-0.757,0-1.135,0c-0.252,0.584-0.505,1.169-0.757,1.753
			c0.292,0.89,0.266,0.721,0.757,1.252c0.126,0,0.252,0,0.378,0C274.175,55.272,274.427,55.188,274.68,55.105z"/>
        <path d="M281.49,51.348c0.126,0.25,0.252,0.501,0.378,0.751c0.126,0,0.252,0,0.378,0c0.252-0.167,0.505-0.334,0.757-0.501
			c-0.378-0.25-0.757-0.501-1.135-0.751C281.742,51.015,281.616,51.182,281.49,51.348z"/>
        <path d="M306.082,53.602c-0.126-0.417-0.252-0.835-0.378-1.252c-2.144-0.584-4.288-1.169-6.432-1.753
			c-0.378,0.417-0.757,0.835-1.135,1.252c-1.241,0.408-2.189,0.546-3.783,0.25c-0.252,0.083-0.505,0.167-0.757,0.25
			c0.828,1.205,2.326,1.434,3.405,2.504c0.631-0.083,1.261-0.167,1.892-0.25c0.252,0,0.505,0,0.757,0
			c-0.757-0.25-1.513-0.501-2.27-0.751c1.773-0.879,5.787-0.676,7.945,0C305.578,53.769,305.83,53.686,306.082,53.602z"/>
        <path d="M290.57,54.103c-0.631,0.083-1.261,0.167-1.892,0.25c-0.504-0.668-1.009-1.336-1.513-2.003
			c-1.639,0.334-3.279,0.668-4.919,1.002c0,0.334,0,0.668,0,1.002c0.126,0.083,0.252,0.167,0.378,0.25
			c2.059-0.337,2.408-0.819,3.783-1.502c0.378,0.584,0.757,1.169,1.135,1.753c2.018-0.167,4.036-0.334,6.054-0.501
			c0-0.083,0-0.167,0-0.25c-0.757-0.167-1.513-0.334-2.27-0.501c0.126-0.584,0.252-1.169,0.378-1.753
			C291.327,52.6,290.948,53.352,290.57,54.103z"/>
        <path d="M302.299,54.854c0.126,0,0.252,0,0.378,0c0.252-0.25,0.505-0.501,0.757-0.751c-0.631,0-1.261,0-1.892,0
			C301.287,54.934,301.095,54.429,302.299,54.854z"/>
        <path d="M218.306,49.596c0.252-0.083,0.505-0.167,0.757-0.25c-0.631-0.083-1.261-0.167-1.892-0.25c0,0.417,0,0.835,0,1.252
			C217.549,50.096,217.928,49.846,218.306,49.596z"/>
        <path d="M125.989,49.596c0.631-0.167,1.261-0.334,1.892-0.501c0-0.083,0-0.167,0-0.25c-0.631-0.083-1.261-0.167-1.892-0.25
			c-0.252,0.083-0.504,0.167-0.757,0.25C125.485,49.095,125.737,49.345,125.989,49.596z"/>
        <path d="M79.831,48.844c-0.252,0.083-0.504,0.167-0.757,0.25c2.907,1.489,10.767-0.294,13.999-1.002
			c0.126-0.25,0.252-0.501,0.378-0.751c-0.631,0-1.261,0-1.892,0C87.408,49.394,84.814,47.445,79.831,48.844z"/>
        <path d="M35.943,44.337c-1.631-0.782-4.548-0.22-6.81,0c0-0.083,0-0.167,0-0.25c0.779-0.547,0.511-0.486,1.892-0.751
			c0.252-0.25,0.505-0.501,0.757-0.751c-1.892-0.25-3.784-0.501-5.675-0.751c-0.252,0.501-0.505,1.002-0.757,1.502
			c0.126,0.083,0.252,0.167,0.378,0.25c1.236,1.238,4.527,1.552,7.188,1.753C33.925,45.005,34.934,44.671,35.943,44.337z"/>
        <path d="M23.079,45.589c0.378-0.334,0.757-0.668,1.135-1.002c-0.252,0-0.504,0-0.757,0c-0.504,0.083-1.009,0.167-1.513,0.25
			C22.322,45.088,22.701,45.338,23.079,45.589z"/>
        <path d="M0,46.34c0.631,0.167,1.261,0.334,1.892,0.501C1.361,45.718,1.703,45.936,0,45.589C0,45.839,0,46.09,0,46.34z"/>
        <path d="M13.242,44.587c0.718,1.549,3.305,1.814,5.297,1.002c0.378-0.25,0.757-0.501,1.135-0.751
			c-0.252-0.167-0.505-0.334-0.757-0.501c-0.504,0.25-1.009,0.501-1.513,0.751c-1.706,0.507-2.718,0.057-3.784-0.501
			C13.494,44.587,13.368,44.587,13.242,44.587z"/>
        <path d="M3.784,44.838c0.378,0.25,0.757,0.501,1.135,0.751c0.252,0.167,0.504,0.334,0.757,0.501
			c0.126-0.167,0.252-0.334,0.378-0.501c-0.631-0.334-1.261-0.668-1.892-1.002C4.036,44.671,3.91,44.754,3.784,44.838z"/>
        <path d="M174.039,46.841c-3.279-0.167-6.558-0.334-9.837-0.501c0.533,0.701-9.516,1.308-12.864,1.252
			c5.275,1.611,16.226-0.26,22.701-0.501C174.039,47.008,174.039,46.924,174.039,46.841z"/>
        <path d="M135.448,49.095c0-0.083,0-0.167,0-0.25c-2.396-0.083-4.793-0.167-7.189-0.25
			C129.838,49.569,133.877,49.093,135.448,49.095z"/>
        <path d="M202.794,49.846c0.883,0.25,1.766,0.501,2.648,0.751c0.504,0,1.009,0,1.513,0c0-0.083,0-0.167,0-0.25
			c-1.261-0.334-2.523-0.668-3.784-1.002C203.046,49.512,202.92,49.679,202.794,49.846z"/>
        <path d="M201.28,46.34c0.252-0.25,0.504-0.501,0.757-0.751c-1.135,0-2.27,0-3.405,0c0,0.167,0,0.334,0,0.501
			C199.709,46.631,199.748,46.491,201.28,46.34z"/>
        <path d="M203.929,45.088c-0.021,1.039,0.265,0.966,1.892,1.502c0.378,0,0.757,0,1.135,0
			C206.286,45.539,205.625,45.405,203.929,45.088z"/>
        <path d="M212.252,46.09c0.126-0.167,0.252-0.334,0.378-0.501c-1.881,0.15-2.295,0.153-3.783-0.25
			c-0.252,0.167-0.504,0.334-0.757,0.501c1.152,0.802,1.828,0.863,3.405,0.25C211.748,46.09,212,46.09,212.252,46.09z"/>
        <path d="M192.578,46.591c0.252-0.167,0.504-0.334,0.757-0.501c-4.288,0-8.576,0-12.864,0c-0.126,0.167-0.252,0.334-0.378,0.501
			C181.611,47.364,190.205,47.299,192.578,46.591z"/>
        <path d="M174.796,47.091c0.631-0.083,1.261-0.167,1.892-0.25c0.378-0.25,0.757-0.501,1.135-0.751
			c-0.252-0.167-0.504-0.334-0.757-0.501c-0.378,0-0.757,0-1.135,0C175.553,46.09,175.174,46.591,174.796,47.091z"/>
        <path d="M136.583,48.594c0.746,0.4,0.517,0.34,1.892,0.501c0.126-0.167,0.252-0.334,0.378-0.501
			c-0.252-0.167-0.505-0.334-0.757-0.501c-0.378,0-0.757,0-1.135,0C136.835,48.26,136.709,48.427,136.583,48.594z"/>
        <path d="M169.878,50.848c-0.252-0.167-0.505-0.334-0.757-0.501c-0.126,0.334-0.252,0.668-0.378,1.002
			C169.121,51.182,169.499,51.015,169.878,50.848z"/>
        <path d="M211.117,49.095c0,0.25,0,0.501,0,0.751c0.631,0,1.261,0,1.892,0C212.244,48.927,212.989,49.299,211.117,49.095z"/>
        <path d="M77.561,35.823c0.252,0,0.505,0,0.757,0c-0.126-0.167-0.252-0.334-0.378-0.501C77.813,35.489,77.687,35.656,77.561,35.823
			z"/>
        <path d="M39.348,46.591c0.252-0.083,0.504-0.167,0.757-0.25c0.126-0.25,0.252-0.501,0.378-0.751
			c-1.031-0.553-0.717-0.606-2.648-0.751C37.552,45.957,37.704,46.086,39.348,46.591z"/>
        <path d="M87.398,35.823c0.378,0.167,0.757,0.334,1.135,0.501C87.851,35.818,88.542,36.138,87.398,35.823z"/>
        <path d="M77.183,46.34c0.126,0.167,0.252,0.334,0.378,0.501c0.252-0.167,0.505-0.334,0.757-0.501
			C77.939,46.34,77.561,46.34,77.183,46.34z"/>
        <path d="M97.235,34.32c-1.227-0.317,0.061-0.411-1.892-0.751c0.547,0.844,0.495,0.773,1.513,1.252
			C96.983,34.654,97.109,34.487,97.235,34.32z"/>
        <path d="M103.289,33.318c-0.504-0.167-1.009-0.334-1.513-0.501c-0.252,0.417-0.505,0.835-0.757,1.252
			c0.504-0.083,1.009-0.167,1.513-0.25c0.252-0.083,0.505-0.167,0.757-0.25C103.289,33.485,103.289,33.402,103.289,33.318z"/>
        <path d="M98.37,34.07c0.378-0.083,0.757-0.167,1.135-0.25c-0.252-0.167-0.504-0.334-0.757-0.501
			C98.622,33.569,98.496,33.819,98.37,34.07z"/>
        <path d="M90.425,34.32c0,0.25,0,0.501,0,0.751c0.126,0,0.252,0,0.378,0c0.252-0.25,0.505-0.501,0.757-0.751
			C91.182,34.32,90.803,34.32,90.425,34.32z"/>
        <path d="M77.561,49.095c0.252,0,0.505,0,0.757,0c-1.627-0.403-3.289-0.434-4.918-0.751c0,0.25,0,0.501,0,0.751
			C74.844,49.583,76.055,49.709,77.561,49.095z"/>
        <path d="M63.562,47.843c0.252-0.334,0.504-0.668,0.757-1.002c0-0.083,0-0.167,0-0.25c-0.757-0.083-1.513-0.167-2.27-0.25
			c-0.172,0.937-0.416,0.412,0.757,1.002C63.058,47.509,63.31,47.676,63.562,47.843z"/>
        <path d="M45.023,46.09c-0.378,0-0.757,0-1.135,0c-0.126,0.167-0.252,0.334-0.378,0.501c0.378,0.25,0.757,0.501,1.135,0.751
			C44.771,46.924,44.897,46.507,45.023,46.09z"/>
        <path d="M45.023,47.843c1.649-0.403,1.787-0.933,2.27-2.003c-0.252,0-0.504,0-0.757,0c-0.517,0.891-0.683,1.168-1.514,1.753
			C45.023,47.676,45.023,47.759,45.023,47.843z"/>
        <path d="M77.939,43.836c-0.861,0.769-1.041,0.918-2.648,1.252c0.252,0.167,0.504,0.334,0.757,0.501
			C77.681,45.375,78.927,44.874,77.939,43.836z"/>
        <path d="M58.265,48.343c0.378-0.167,0.757-0.334,1.135-0.501c-0.252,0-0.504,0-0.757,0C58.518,48.01,58.392,48.177,58.265,48.343z
			"/>
        <path d="M46.537,32.066c-0.126-0.167-0.252-0.334-0.378-0.501c-0.631,0-1.261,0-1.892,0c-0.126,0.334-0.252,0.668-0.378,1.002
			c-1.387-0.167-2.775-0.334-4.162-0.501c0,0.334,0,0.668,0,1.002c1.765,0.25,3.531,0.501,5.297,0.751
			C45.528,33.235,46.032,32.651,46.537,32.066z"/>
        <path d="M76.048,47.091c-0.668-1.426-1.71-1.383-4.54-1.252c-2.244,1.208-4.035,0.76-6.432,0.501c0,0.083,0,0.167,0,0.25
			c0.378,0.334,0.757,0.668,1.135,1.002c3.026-0.083,6.054-0.167,9.08-0.25C75.543,47.258,75.795,47.175,76.048,47.091z"/>
        <path d="M68.859,50.347c0-0.083,0-0.167,0-0.25c-0.969-0.775-0.93-0.868-3.027-1.002c0.126,0.334,0.252,0.668,0.378,1.002
			c0.378,0.083,0.757,0.167,1.135,0.25C67.85,50.347,68.355,50.347,68.859,50.347z"/>
        <path d="M105.18,33.068c-0.252,0.083-0.504,0.167-0.757,0.25c0.252,0.167,0.504,0.334,0.757,0.501
			C105.553,33.11,105.796,33.699,105.18,33.068z"/>
        <path d="M60.535,37.576c-0.378,0.334-0.757,0.668-1.135,1.002c1.123-0.304,0.771-0.243,1.892-0.25
			C61.04,38.076,60.788,37.826,60.535,37.576z"/>
        <path d="M113.882,32.818c0-0.083,0-0.167,0-0.25c-1.135-0.25-2.27-0.501-3.405-0.751c-1.261,0.417-2.523,0.835-3.784,1.252
			c0.126,0.25,0.252,0.501,0.378,0.751C108.876,34.193,111.051,33.301,113.882,32.818z"/>
        <path d="M432.072,8.277c0.378,0,0.757,0,1.135,0c0.126-0.167,0.252-0.334,0.378-0.501c-0.504-0.083-1.009-0.167-1.514-0.25
			C432.072,7.776,432.072,8.026,432.072,8.277z"/>
        <path d="M161.176,28.31c-0.504,0-1.009,0-1.513,0c-0.252,0.334-0.504,0.668-0.757,1.002c0.631-0.083,1.261-0.167,1.892-0.25
			c0.126-0.167,0.252-0.334,0.378-0.501C161.176,28.477,161.176,28.394,161.176,28.31z"/>
        <path d="M134.313,30.063c-0.504,0-1.009,0-1.513,0c-0.126,0.334-0.252,0.668-0.378,1.002c2.108-0.212,0.453-0.317,2.27,0.25
			C134.565,30.898,134.439,30.48,134.313,30.063z"/>
        <path d="M40.105,41.332c-1.639-0.083-3.279-0.167-4.918-0.25c-1.009,0.584-2.018,1.169-3.027,1.753c0,0.083,0,0.167,0,0.25
			c1.797,0.135,1.752-0.25,3.405-0.751c1.659,1.074,2.267,1.345,4.162,1.753C40.604,43.38,40.593,42.326,40.105,41.332z"/>
        <path d="M29.889,32.818c-0.252,0.25-0.505,0.501-0.757,0.751c2.833,0.004,2.019,0.198,4.162,0.751
			c0.252-0.167,0.504-0.334,0.757-0.501C33.023,32.821,32.56,32.757,29.889,32.818z"/>
        <path d="M62.427,26.307c-0.252,0-0.505,0-0.757,0c-0.126,0.167-0.252,0.334-0.378,0.501
			C61.671,26.641,62.049,26.474,62.427,26.307z"/>
        <path d="M37.456,33.318c0.808-0.587,0.53-0.274,0.378-1.002c-0.883,0.334-1.766,0.668-2.648,1.002
			c0.126,0.25,0.252,0.501,0.378,0.751C36.195,33.819,36.826,33.569,37.456,33.318z"/>
        <path d="M28.376,35.071c0.126,0,0.252,0,0.378,0c-0.126-0.25-0.252-0.501-0.378-0.751C28.376,34.571,28.376,34.821,28.376,35.071z
			"/>
	</g>
</g>
</svg>
